<?xml version="1.0" encoding="UTF-8"?>
<!DOCTYPE svg PUBLIC "-//W3C//DTD SVG 1.1//EN" "http://www.w3.org/Graphics/SVG/1.1/DTD/svg11.dtd">
<!-- Creator: CorelDRAW 2019 (64-Bit) -->
<svg xmlns="http://www.w3.org/2000/svg" xml:space="preserve" width="344px" height="120px" version="1.1" style="shape-rendering:geometricPrecision; text-rendering:geometricPrecision; image-rendering:optimizeQuality; fill-rule:evenodd; clip-rule:evenodd"
viewBox="0 0 117.83 41.09"
 xmlns:xlink="http://www.w3.org/1999/xlink"
 xmlns:xodm="http://www.corel.com/coreldraw/odm/2003">
 <defs>
  <style type="text/css">
   <![CDATA[
    .fil1 {fill:#713D7A}
    .fil0 {fill:#713D7A;fill-rule:nonzero}
   ]]>
  </style>
 </defs>
 <g id="Warstwa_x0020_1">
  <metadata id="CorelCorpID_0Corel-Layer"/>
  <path class="fil0" d="M62.25 13.91l-1.09 0 0 -3.76c0,-0.19 0.02,-0.47 0.06,-0.82l-0.98 3.88 -0.58 0 -0.99 -3.88c0.04,0.36 0.07,0.63 0.07,0.82l0 3.76 -1.1 0 0 -7.61 1.07 0 1.21 4.2c0.01,0.05 0.02,0.16 0.03,0.35 0,-0.08 0.01,-0.2 0.03,-0.35l1.2 -4.2 1.07 0 0 7.61z"/>
  <polygon id="1" class="fil0" points="83.85,11.49 81.53,11.49 81.53,10.47 83.85,10.47 "/>
  <path id="2" class="fil0" d="M67.77 13.31c0,0.4 -0.2,0.6 -0.6,0.6l-2.6 0c-0.4,0 -0.6,-0.2 -0.6,-0.6l0 -7.01 1.14 0 0 6.63 1.53 0 0 -6.63 1.13 0 0 7.01z"/>
  <polygon id="3" class="fil0" points="72.5,13.91 69.51,13.91 69.51,6.3 70.65,6.3 70.65,12.89 72.5,12.89 "/>
  <polygon id="4" class="fil0" points="77.31,7.31 76.05,7.31 76.05,13.91 74.92,13.91 74.92,7.31 73.66,7.31 73.66,6.3 77.31,6.3 "/>
  <polygon id="5" class="fil0" points="79.86,13.91 78.73,13.91 78.73,6.3 79.86,6.3 "/>
  <polygon id="6" class="fil0" points="88.81,7.31 87.56,7.31 87.56,13.91 86.42,13.91 86.42,7.31 85.17,7.31 85.17,6.3 88.81,6.3 "/>
  <path id="7" class="fil0" d="M94.07 13.91l-1.13 0 -0.23 -1.45 -1.42 0 -0.23 1.45 -1.13 0 0 -0.02 1.48 -7.6 1.2 0 1.46 7.62zm-1.52 -2.42l-0.55 -3.44 -0.56 3.44 1.11 0z"/>
  <path id="8" class="fil0" d="M99.17 13.31c0,0.4 -0.2,0.6 -0.6,0.6l-2.46 0c-0.4,0 -0.6,-0.2 -0.6,-0.6l0 -1.9 1.13 0 0 1.54 1.4 0 0 -1.49 -2.29 -2.16c-0.16,-0.16 -0.24,-0.36 -0.24,-0.61l0 -1.79c0,-0.4 0.2,-0.6 0.6,-0.6l2.46 0c0.4,0 0.6,0.2 0.6,0.59l0 1.8 -1.13 0 0 -1.43 -1.4 0 0 1.37 2.29 2.15c0.16,0.16 0.24,0.37 0.24,0.62l0 1.91z"/>
  <polygon id="9" class="fil0" points="104.73,13.91 103.48,13.91 102.03,10.52 102.03,13.91 100.9,13.91 100.9,6.3 102.03,6.3 102.03,9.52 103.3,6.3 104.54,6.3 104.54,6.35 102.99,9.97 "/>
  <path id="10" class="fil0" d="M62.25 24.35l-1.09 0 0 -3.75c0,-0.2 0.02,-0.47 0.06,-0.83l-0.98 3.89 -0.58 0 -0.99 -3.89c0.04,0.36 0.07,0.64 0.07,0.83l0 3.75 -1.1 0 0 -7.6 1.07 0 1.21 4.2c0.01,0.05 0.02,0.16 0.03,0.35 0,-0.09 0.01,-0.2 0.03,-0.35l1.2 -4.2 1.07 0 0 7.6z"/>
  <polygon id="11" class="fil0" points="83.85,21.93 81.53,21.93 81.53,20.92 83.85,20.92 "/>
  <path id="12" class="fil0" d="M67.77 23.75c0,0.4 -0.2,0.6 -0.6,0.6l-2.6 0c-0.4,0 -0.6,-0.2 -0.6,-0.6l0 -7 1.14 0 0 6.63 1.53 0 0 -6.63 1.13 0 0 7z"/>
  <polygon id="13" class="fil0" points="72.5,24.35 69.51,24.35 69.51,16.75 70.65,16.75 70.65,23.34 72.5,23.34 "/>
  <polygon id="14" class="fil0" points="77.31,17.75 76.05,17.75 76.05,24.35 74.92,24.35 74.92,17.75 73.66,17.75 73.66,16.75 77.31,16.75 "/>
  <polygon id="15" class="fil0" points="79.86,24.35 78.73,24.35 78.73,16.75 79.86,16.75 "/>
  <polygon id="16" class="fil0" points="88.5,24.35 85.51,24.35 85.51,16.75 86.64,16.75 86.64,23.34 88.5,23.34 "/>
  <polygon id="17" class="fil0" points="91.15,24.35 90.01,24.35 90.01,16.75 91.15,16.75 "/>
  <path id="18" class="fil0" d="M96.76 24.35l-0.99 0 -1.83 -4.78c0.05,0.23 0.07,0.41 0.07,0.55l0 4.23 -1.1 0 0 -7.6 0.99 0 1.83 4.69c-0.05,-0.24 -0.07,-0.42 -0.07,-0.55l0 -4.14 1.1 0 0 7.6z"/>
  <path id="19" class="fil0" d="M102.26 23.75c0,0.4 -0.2,0.6 -0.6,0.6l-2.56 0c-0.4,0 -0.6,-0.2 -0.6,-0.6l0 -6.4c0,-0.4 0.21,-0.6 0.62,-0.6l2.54 0c0.4,0 0.6,0.2 0.6,0.6l0 1.72 -1.14 0 0 -1.35 -1.49 0 0 5.66 1.49 0 0 -2.14 -0.85 0 0 -0.97 1.99 0 0 3.48z"/>
  <path id="20" class="fil0" d="M107.79 23.75c0,0.4 -0.2,0.6 -0.6,0.6l-2.6 0c-0.4,0 -0.6,-0.2 -0.6,-0.6l0 -7 1.14 0 0 6.63 1.53 0 0 -6.63 1.13 0 0 7z"/>
  <path id="21" class="fil0" d="M113.39 24.35l-1.13 0 -0.23 -1.44 -1.42 0 -0.23 1.44 -1.13 0 0 -0.02 1.48 -7.59 1.19 0 1.47 7.61zm-1.52 -2.42l-0.55 -3.43 -0.56 3.43 1.11 0z"/>
  <polygon id="22" class="fil0" points="117.83,24.35 114.85,24.35 114.85,16.75 115.98,16.75 115.98,23.34 117.83,23.34 "/>
  <path id="23" class="fil0" d="M62.25 34.8l-1.09 0 0 -3.75c0,-0.2 0.02,-0.48 0.06,-0.83l-0.98 3.88 -0.58 0 -0.99 -3.88c0.04,0.36 0.07,0.64 0.07,0.83l0 3.75 -1.1 0 0 -7.61 1.07 0 1.21 4.21c0.01,0.04 0.02,0.16 0.03,0.34 0,-0.08 0.01,-0.19 0.03,-0.34l1.2 -4.21 1.07 0 0 7.61z"/>
  <polygon id="24" class="fil0" points="83.85,32.38 81.53,32.38 81.53,31.37 83.85,31.37 "/>
  <path id="25" class="fil0" d="M67.77 34.2c0,0.4 -0.2,0.6 -0.6,0.6l-2.6 0c-0.4,0 -0.6,-0.2 -0.6,-0.6l0 -7.01 1.14 0 0 6.63 1.53 0 0 -6.63 1.13 0 0 7.01z"/>
  <polygon id="26" class="fil0" points="72.5,34.8 69.51,34.8 69.51,27.19 70.65,27.19 70.65,33.79 72.5,33.79 "/>
  <polygon id="27" class="fil0" points="77.31,28.2 76.05,28.2 76.05,34.8 74.92,34.8 74.92,28.2 73.66,28.2 73.66,27.19 77.31,27.19 "/>
  <polygon id="28" class="fil0" points="79.86,34.8 78.73,34.8 78.73,27.19 79.86,27.19 "/>
  <path id="29" class="fil0" d="M90.12 34.8l-1.1 0 0 -3.75c0,-0.2 0.03,-0.48 0.07,-0.83l-0.98 3.88 -0.58 0 -1 -3.88c0.05,0.36 0.07,0.64 0.07,0.83l0 3.75 -1.09 0 0 -7.61 1.07 0 1.2 4.21c0.02,0.04 0.03,0.16 0.03,0.34 0,-0.08 0.01,-0.19 0.03,-0.34l1.21 -4.21 1.07 0 0 7.61z"/>
  <path id="30" class="fil0" d="M95.67 34.2c0,0.4 -0.2,0.6 -0.6,0.6l-2.63 0c-0.4,0 -0.6,-0.2 -0.6,-0.6l0 -6.4c0,-0.4 0.2,-0.61 0.6,-0.61l2.63 0c0.4,0 0.6,0.21 0.6,0.61l0 6.4zm-1.13 -0.38l0 -5.65 -1.57 0 0 5.65 1.57 0z"/>
  <path id="31" class="fil0" d="M101.2 33.37c0,0.44 -0.13,0.79 -0.4,1.05 -0.26,0.25 -0.62,0.38 -1.07,0.38l-2.32 0 0 -7.61 2.32 0c0.45,0 0.81,0.13 1.07,0.39 0.27,0.26 0.4,0.61 0.4,1.06l0 4.73zm-1.14 -0.19l0 -4.37c0,-0.43 -0.23,-0.64 -0.67,-0.64l-0.85 0 0 5.65 0.82 0c0.46,0 0.7,-0.21 0.7,-0.64z"/>
  <path id="32" class="fil0" d="M106.76 34.8l-1.13 0 -0.23 -1.44 -1.43 0 -0.22 1.44 -1.13 0 0 -0.02 1.48 -7.6 1.19 0 1.47 7.62zm-1.52 -2.42l-0.56 -3.43 -0.55 3.43 1.11 0z"/>
  <polygon id="33" class="fil0" points="111.2,34.8 108.21,34.8 108.21,27.19 109.35,27.19 109.35,33.79 111.2,33.79 "/>
  <path class="fil1" d="M32.93 12.57l0 9.51 0 9.5 -8.23 4.76 -8.23 4.75 -8.24 -4.75 -8.23 -4.76 0 -9.5 0 -9.51 8.23 -4.75 8.23 -4.75 8.24 4.75 8.23 4.75zm-2.93 1.7l0 7.81 0 7.81 -6.77 3.91 -6.77 3.9 -6.76 -3.9 -6.77 -3.91 0 -7.81 0 -7.81 6.77 -3.91 6.76 -3.91 6.77 3.91 6.77 3.91z"/>
  <path class="fil1" d="M38.23 0l4.12 2.38 4.12 2.38 0 4.75 0 4.76 -4.12 2.37 -4.12 2.38 -4.12 -2.38 -4.11 -2.37 0 -4.76 0 -4.75 4.11 -2.38 4.12 -2.38zm5.35 9.21c0,0.2 -0.1,0.3 -0.3,0.3l-1.26 0c-0.2,0 -0.31,-0.1 -0.31,-0.3l0 -0.94 0.57 0 0 0.75 0.74 0 0 -0.97 -0.71 -0.49 0 -0.12 0.71 -0.48 0 -0.82 -0.74 0 0 0.71 -0.57 0 0 -0.9c0,-0.2 0.11,-0.3 0.32,-0.3l1.25 0c0.2,0 0.3,0.1 0.3,0.3l0 0.96c0,0.15 -0.06,0.27 -0.19,0.36l-0.36 0.23 0.37 0.23c0.12,0.08 0.18,0.19 0.18,0.35l0 1.13zm-3.01 4.16l-1.11 0 0 -3.81c0,-0.2 0.02,-0.48 0.07,-0.84l-1 3.95 -0.59 0 -1.01 -3.95c0.05,0.37 0.07,0.65 0.07,0.84l0 3.81 -1.11 0 0 -7.72 1.09 0 1.22 4.27c0.02,0.04 0.03,0.16 0.03,0.35 0,-0.09 0.01,-0.2 0.03,-0.35l1.22 -4.27 1.09 0 0 7.72z"/>
  <path class="fil0" d="M13.41 27.23l-1.35 0 -2.49 -6.48c0.07,0.31 0.1,0.56 0.1,0.74l0 5.74 -1.5 0 0 -10.3 1.35 0 2.48 6.35c-0.06,-0.32 -0.09,-0.56 -0.09,-0.74l0 -5.61 1.5 0 0 10.3z"/>
  <polygon id="1" class="fil0" points="18.72,27.23 14.66,27.23 14.66,16.93 16.2,16.93 16.2,25.85 18.72,25.85 "/>
  <path id="2" class="fil0" d="M24.76 26.41c0,0.54 -0.27,0.82 -0.82,0.82l-3.48 0c-0.54,0 -0.82,-0.28 -0.82,-0.82l0 -8.67c0,-0.54 0.28,-0.81 0.84,-0.81l3.46 0c0.55,0 0.82,0.27 0.82,0.81l0 2.33 -1.56 0 0 -1.82 -2.01 0 0 7.66 2.01 0 0 -2.9 -1.15 0 0 -1.31 2.71 0 0 4.71z"/>
 </g>
</svg>
